<svg width="512" height="512" viewBox="0 0 512 512" fill="none" xmlns="http://www.w3.org/2000/svg">
  <rect width="512" height="512" rx="112" fill="#080807"/>
  <rect x="32" y="32" width="448" height="448" rx="92" fill="url(#bg)" stroke="url(#stroke)" stroke-width="8"/>
  <circle cx="256" cy="216" r="126" fill="url(#coin)"/>
  <circle cx="256" cy="216" r="94" stroke="#171104" stroke-opacity=".28" stroke-width="10"/>
  <path d="M190 276V156h35v46l42-46h43l-49 52 54 68h-44l-36-47-10 11v36h-35Z" fill="#171104"/>
  <path d="M318 276V156h48c19 0 34 6 45 17 11 12 17 26 17 43 0 18-6 32-17 44-11 11-26 16-45 16h-48Zm35-31h12c9 0 16-3 21-8 5-6 7-13 7-21 0-9-2-16-7-21-5-6-12-8-21-8h-12v58Z" fill="#171104"/>
  <path d="M142 352C178 331 210 326 238 337C271 350 301 344 370 296" stroke="#F3CF75" stroke-width="18" stroke-linecap="round" stroke-linejoin="round"/>
  <circle cx="142" cy="352" r="12" fill="#F3CF75"/>
  <circle cx="238" cy="337" r="12" fill="#F3CF75"/>
  <circle cx="370" cy="296" r="12" fill="#F3CF75"/>
  <defs>
    <linearGradient id="bg" x1="64" y1="32" x2="456" y2="486" gradientUnits="userSpaceOnUse">
      <stop stop-color="#1E1A12"/>
      <stop offset="1" stop-color="#050504"/>
    </linearGradient>
    <linearGradient id="stroke" x1="92" y1="24" x2="420" y2="488" gradientUnits="userSpaceOnUse">
      <stop stop-color="#F3CF75"/>
      <stop offset="1" stop-color="#7B5A16"/>
    </linearGradient>
    <linearGradient id="coin" x1="144" y1="92" x2="362" y2="330" gradientUnits="userSpaceOnUse">
      <stop stop-color="#F8D982"/>
      <stop offset=".52" stop-color="#D8AA3D"/>
      <stop offset="1" stop-color="#A9781E"/>
    </linearGradient>
  </defs>
</svg>
