<svg width="512" height="512" viewBox="0 0 512 512" fill="none" xmlns="http://www.w3.org/2000/svg">
  <rect width="512" height="512" rx="112" fill="#080807"/>
  <rect x="28" y="28" width="456" height="456" rx="92" fill="url(#bg)" stroke="#D8AA3D" stroke-width="8"/>
  <circle cx="256" cy="242" r="184" fill="url(#coin)" stroke="#342B1B" stroke-width="10"/>
  <circle cx="256" cy="242" r="158" stroke="#E4D294" stroke-opacity=".74" stroke-width="4"/>
  <g fill="#2A2518" opacity=".8">
    <circle cx="256" cy="60" r="4"/>
    <circle cx="280" cy="62" r="4"/>
    <circle cx="304" cy="67" r="4"/>
    <circle cx="328" cy="76" r="4"/>
    <circle cx="350" cy="88" r="4"/>
    <circle cx="370" cy="104" r="4"/>
    <circle cx="388" cy="122" r="4"/>
    <circle cx="402" cy="144" r="4"/>
    <circle cx="414" cy="168" r="4"/>
    <circle cx="421" cy="194" r="4"/>
    <circle cx="425" cy="220" r="4"/>
    <circle cx="425" cy="248" r="4"/>
    <circle cx="421" cy="276" r="4"/>
    <circle cx="414" cy="302" r="4"/>
    <circle cx="402" cy="326" r="4"/>
    <circle cx="386" cy="348" r="4"/>
    <circle cx="366" cy="366" r="4"/>
    <circle cx="342" cy="381" r="4"/>
    <circle cx="316" cy="392" r="4"/>
    <circle cx="288" cy="398" r="4"/>
    <circle cx="260" cy="400" r="4"/>
    <circle cx="232" cy="398" r="4"/>
    <circle cx="204" cy="392" r="4"/>
    <circle cx="178" cy="381" r="4"/>
    <circle cx="154" cy="366" r="4"/>
    <circle cx="134" cy="348" r="4"/>
    <circle cx="118" cy="326" r="4"/>
    <circle cx="106" cy="302" r="4"/>
    <circle cx="99" cy="276" r="4"/>
    <circle cx="95" cy="248" r="4"/>
    <circle cx="95" cy="220" r="4"/>
    <circle cx="99" cy="194" r="4"/>
    <circle cx="106" cy="168" r="4"/>
    <circle cx="118" cy="144" r="4"/>
    <circle cx="132" cy="122" r="4"/>
    <circle cx="150" cy="104" r="4"/>
    <circle cx="170" cy="88" r="4"/>
    <circle cx="192" cy="76" r="4"/>
    <circle cx="216" cy="67" r="4"/>
    <circle cx="240" cy="62" r="4"/>
  </g>
  <path d="M214 282C200 232 252 201 294 238C330 270 298 342 246 326C214 316 204 299 214 282Z" fill="#322B1C" opacity=".62" stroke="#E5D6A8" stroke-width="7" stroke-linejoin="round"/>
  <path d="M276 231C286 174 302 110 332 104C362 98 363 147 335 158C312 167 306 196 302 231Z" fill="#322B1C" opacity=".62" stroke="#E5D6A8" stroke-width="7" stroke-linejoin="round"/>
  <path d="M314 107L303 76L331 101L342 72L357 108L373 91L368 126" stroke="#E5D6A8" stroke-width="7" stroke-linecap="round" stroke-linejoin="round"/>
  <path d="M221 278C162 203 80 224 66 270M230 306C161 251 90 258 67 320M232 335C163 318 104 349 92 397" stroke="#E5D6A8" stroke-width="7" stroke-linecap="round"/>
  <path d="M234 256L295 245M236 277L294 267M236 297L294 287M238 317L289 308" stroke="#E5D6A8" stroke-width="4" stroke-linecap="round"/>
  <path d="M244 328L220 412M294 324L333 412M186 420L384 408M168 438L368 430" stroke="#E5D6A8" stroke-width="7" stroke-linecap="round"/>
  <defs>
    <linearGradient id="bg" x1="52" y1="28" x2="460" y2="484" gradientUnits="userSpaceOnUse">
      <stop stop-color="#1B170F"/>
      <stop offset="1" stop-color="#050504"/>
    </linearGradient>
    <linearGradient id="coin" x1="118" y1="78" x2="390" y2="414" gradientUnits="userSpaceOnUse">
      <stop stop-color="#B5A36A"/>
      <stop offset=".55" stop-color="#887B4D"/>
      <stop offset="1" stop-color="#50482D"/>
    </linearGradient>
  </defs>
</svg>
